<?xml version="1.0" standalone="no"?>
<!DOCTYPE svg PUBLIC "-//W3C//DTD SVG 20010904//EN"
 "http://www.w3.org/TR/2001/REC-SVG-20010904/DTD/svg10.dtd">
<svg version="1.0" xmlns="http://www.w3.org/2000/svg"
 width="862.000000pt" height="1280.000000pt" viewBox="0 0 862.000000 1280.000000"
 preserveAspectRatio="xMidYMid meet">
<metadata>
Created by potrace 1.15, written by Peter Selinger 2001-2017
</metadata>
<g transform="translate(0.000000,1280.000000) scale(0.100000,-0.100000)"
fill="#000000" stroke="none">
<path d="M5190 12793 c-305 -8 -566 -45 -810 -114 -674 -192 -1412 -630 -2400
-1423 -588 -472 -1000 -879 -1299 -1286 -233 -315 -427 -670 -580 -1057 -81
-208 -95 -272 -96 -448 0 -182 19 -264 99 -422 69 -139 148 -230 371 -431 83
-75 233 -219 335 -322 191 -192 273 -257 445 -356 342 -197 909 -340 1358
-345 62 -1 126 -4 142 -8 28 -6 30 -9 28 -50 -1 -23 -31 -171 -67 -329 -126
-552 -178 -920 -206 -1452 -14 -263 -20 -1253 -9 -1520 14 -347 66 -891 120
-1265 77 -536 271 -1055 575 -1536 144 -228 293 -339 492 -369 513 -76 635
-74 1257 16 274 40 534 84 625 105 136 33 409 118 460 144 64 32 144 122 169
190 70 186 107 555 82 815 -27 277 -33 298 -416 1415 -478 1395 -645 2195
-645 3088 0 320 13 509 37 545 l15 24 271 -9 c709 -22 818 -8 1580 201 296 81
310 84 542 92 247 8 315 21 440 83 277 137 429 364 492 736 27 157 24 509 -6
680 -35 199 -179 693 -450 1550 -112 352 -340 1020 -402 1176 -211 534 -471
941 -829 1300 -370 371 -697 542 -1105 579 -91 9 -372 10 -615 3z m-629 -499
c110 -60 186 -187 176 -292 -16 -157 -158 -280 -312 -270 -110 7 -204 73 -254
178 -48 104 -29 217 54 309 99 109 221 137 336 75z m2091 -179 c159 -48 241
-142 445 -510 266 -478 423 -784 459 -892 94 -279 -118 -530 -407 -484 -120
20 -336 142 -488 276 -296 261 -461 609 -512 1080 -15 145 -7 251 26 324 28
59 88 129 143 163 86 53 237 73 334 43z m-4816 -1708 c256 -131 369 -425 324
-845 -42 -380 -150 -634 -354 -830 -144 -138 -312 -232 -499 -279 -172 -43
-417 -35 -566 18 -171 62 -271 205 -271 390 0 104 22 168 127 379 200 400 439
739 658 934 134 119 275 224 331 247 70 28 180 22 250 -14z m6126 -1501 c65
-31 121 -88 151 -155 18 -37 22 -65 22 -151 0 -96 -3 -110 -28 -160 -37 -72
-76 -111 -145 -146 -50 -25 -68 -28 -152 -29 -83 0 -102 4 -152 27 -131 61
-218 185 -218 308 0 143 123 291 275 331 60 16 187 3 247 -25z m-4476 -331
c49 -14 99 -56 123 -102 10 -20 83 -310 176 -698 19 -82 43 -180 52 -218 16
-67 16 -67 -10 -125 -14 -31 -38 -72 -53 -91 -26 -32 -28 -33 -93 -29 -125 7
-263 93 -344 215 -70 105 -129 274 -162 461 -39 227 10 485 107 553 67 48 125
58 204 34z m1211 -46 c88 -42 139 -132 150 -264 3 -38 10 -73 16 -76 5 -4 0
-40 -13 -90 -34 -135 -75 -289 -160 -613 -30 -114 -127 -232 -212 -258 -58
-17 -105 1 -167 67 -105 111 -162 292 -141 450 26 192 149 607 205 692 37 56
94 100 147 114 47 11 126 1 175 -22z m1203 -235 c106 -48 173 -137 173 -230 0
-63 -26 -122 -148 -329 -234 -399 -445 -642 -599 -691 -52 -16 -55 -16 -97 4
-72 35 -114 120 -140 277 -9 61 -9 91 1 148 27 155 101 335 198 482 56 85 249
281 316 320 103 60 193 66 296 19z m-3575 -5 c62 -16 118 -69 172 -162 86
-148 191 -277 373 -459 126 -125 197 -204 244 -273 36 -53 66 -101 66 -105 0
-23 -174 -60 -279 -60 -200 0 -393 91 -562 266 -168 175 -274 392 -274 564 0
75 3 91 27 132 29 49 79 86 132 98 45 11 52 11 101 -1z m4300 -265 c63 -30
125 -138 145 -253 22 -122 -31 -269 -175 -486 -184 -279 -452 -512 -648 -565
-100 -27 -250 14 -297 81 -58 80 -30 138 165 350 211 230 293 333 452 573 80
120 160 234 177 254 53 60 117 76 181 46z m-5288 -363 c32 -16 108 -61 168
-100 284 -184 591 -308 930 -376 117 -24 134 -30 173 -63 24 -20 53 -43 63
-51 10 -7 19 -17 19 -21 0 -10 -126 -54 -195 -69 -157 -33 -368 -71 -399 -71
-45 0 -187 33 -291 67 -263 86 -480 240 -610 435 -72 106 -90 176 -65 243 20
53 109 56 207 6z m5786 -353 c25 -143 24 -147 -85 -263 -170 -182 -292 -243
-592 -295 -124 -22 -135 -20 -136 20 0 25 200 191 525 436 139 105 151 112
208 124 71 14 74 13 80 -22z m-2968 -467 c83 -12 226 -28 320 -36 182 -17 223
-29 259 -78 21 -28 21 -38 22 -705 0 -416 5 -737 12 -832 30 -398 66 -712 123
-1085 148 -968 311 -1588 604 -2290 128 -306 165 -446 165 -625 0 -122 -17
-197 -62 -282 -69 -129 -186 -198 -498 -291 -472 -142 -902 -139 -1353 9 -129
43 -212 95 -273 173 -91 115 -209 393 -274 649 -193 758 -256 1475 -231 2607
20 864 35 1116 92 1495 25 167 51 315 88 510 49 257 64 335 92 490 19 101 39
181 52 205 27 49 85 80 188 100 110 21 480 13 674 -14z"/>
</g>
</svg>
